# xmcd
#
# Track frame offsets: 
#        150
#        14103
#        28168
#        42887
#        57153
#        73112
#        90872
#
# Disc length: 1432 seconds
#
# Revision: 0
# Processed by: cddbd v1.5.2PL0 Copyright (c) Steve Scherf et al.
# Submitted via: ExactAudioCopy v1.3
#
DISCID=57059607
DTITLE=Bluestamtam - Lap Dance
DYEAR=2019
DGENRE=Rockin' Blues
TTITLE0=The Blues Will Never Die
TTITLE1=Ever Since You're Gone
TTITLE2=Blues Cruise
TTITLE3=I Feel So Strong
TTITLE4=I Really Don't Know
TTITLE5=What I'd Do For You
TTITLE6=You Got Something Going On
EXTD=
EXTT0=
EXTT1=
EXTT2=
EXTT3=
EXTT4=
EXTT5=
EXTT6=
PLAYORDER=
